<svg xmlns="http://www.w3.org/2000/svg" xmlns:xlink="http://www.w3.org/1999/xlink" version="1.1" width="100" height="100" viewBox="0 0 1000 1000" xml:space="preserve">
<desc>Created with Fabric.js 3.5.0</desc>
<defs>
</defs>
<rect x="0" y="0" width="100%" height="100%" fill="#ffffff"/>
<g transform="matrix(13.301 0 0 13.301 698.9551 258.6852)" id="741954">
<path style="stroke: none; stroke-width: 1; stroke-dasharray: none; stroke-linecap: butt; stroke-dashoffset: 0; stroke-linejoin: miter; stroke-miterlimit: 4; is-custom-font: none; font-file-url: none; fill: rgb(153,110,168); fill-rule: evenodd; opacity: 1;" vector-effect="non-scaling-stroke" transform=" translate(-14.7242, -17.43)" d="M 8.26 29.6 c 5.57 -1.79 6.61 -1.76 12.38 -2.27 c -4.07 -0.45 -7.92 -0.02 -12.18 1.37 c 0.15 -0.68 0.39 -1.32 0.72 -1.93 l 0.09 -0.16 c 1.78 -3.18 5.78 -5.36 9.45 -5.45 c 4.35 -0.11 9.4 3.07 10.73 5.93 c -0.09 0.24 -0.2 0.49 -0.33 0.74 l -0.07 0.13 l 0 0.01 c -1.55 2.87 -5.61 6.3 -9.44 6.84 c -4.13 0.58 -9.92 -3.11 -11.36 -5.17 l 0.02 -0.01 l -0.01 -0.01 z m 0.76 -14.57 c 0.61 -1.2 1.29 -2.6 2.16 -4.35 c -0.7 2.65 -1.65 5.12 -2.9 7.51 l -0.01 0.02 l -0.11 0.2 l -0.01 0.02 l -0.11 0.2 l -0.01 0.02 c -1.21 2.23 -2.68 4.39 -4.47 6.56 l 0.01 0 l -0.02 0.02 c 5.3 0.85 11.04 -2.96 13.69 -7.81 l 0 0 l 0.12 -0.23 c 0.18 -0.34 0.34 -0.68 0.48 -1.03 c 2.25 -5.34 0.75 -13.13 -2.15 -16.17 c -4.26 -0.07 -11.52 3.53 -14.29 8.46 l -0.01 0.02 c -0.04 0.07 -0.08 0.14 -0.11 0.21 l 0 0 c -2.55 4.88 -0.81 13.63 1.03 16.37 c 3.09 -3.8 4.42 -5.72 5.83 -8.34 l 0.01 -0.02 l 0.1 -0.18 l 0.01 -0.02 l 0.1 -0.18 l 0.01 -0.02 l 0.1 -0.18 l 0.01 -0.02 l 0.1 -0.19 l 0.01 -0.02 l 0.1 -0.19 l 0.01 -0.02 l 0.21 -0.41 l 0.01 -0.02 l 0.1 -0.2 z" stroke-linecap="round"/>
</g>
<g transform="matrix(3.9383 0 0 3.9383 352.3495 654.363)" id="725568">
<g style="" vector-effect="non-scaling-stroke">
		<g transform="matrix(3.2136 0 0 3.2136 0.5616 -0.0027)" id="Layer_x0020_1">
<path style="stroke: none; stroke-width: 1; stroke-dasharray: none; stroke-linecap: butt; stroke-dashoffset: 0; stroke-linejoin: miter; stroke-miterlimit: 4; is-custom-font: none; font-file-url: none; fill: rgb(153,110,168); fill-rule: evenodd; opacity: 1;" transform=" translate(-22.2395, -22.404)" d="M 5.19 8.59 c -5.08 5.15 -7.72 17.47 -1.81 25.57 c 4.72 6.39 11.63 10.51 19.68 10.65 c 15.88 -0.12 26.3 -18.41 19.09 -32.32 c -6.85 -14.85 -26.81 -16.85 -36.95 -3.9 z" stroke-linecap="round"/>
</g>
		<g transform="matrix(3.2136 0 0 3.2136 -36.2488 3.2942)" id="Layer_x0020_1">
<path style="stroke: none; stroke-width: 1; stroke-dasharray: none; stroke-linecap: butt; stroke-dashoffset: 0; stroke-linejoin: miter; stroke-miterlimit: 4; is-custom-font: none; font-file-url: none; fill: rgb(255,255,255); fill-rule: evenodd; opacity: 1;" transform=" translate(-10.785, -23.43)" d="M 10.01 21.27 c 3.04 -0.96 4.19 3.37 1.51 4.3 c -1.31 0.45 -2.66 -0.46 -2.93 -1.4 c -0.4 -1.45 0.38 -2.58 1.42 -2.91 z m -7.24 -2.1 c 0.03 0.59 0.74 1.34 1.32 2.05 c 2.96 3.58 -0.19 4.6 -1 7.14 c 2.93 0.15 4.97 -2 6.91 2.01 c 0.26 0.54 0.79 1.75 1.23 2.06 c 1.09 -1.31 0.53 -2.47 2.31 -4.01 c 1.78 -1.55 3.22 -0.35 5.26 -0.86 c -0.2 -1 -3.3 -3.01 -1.62 -6.85 c 0.34 -0.77 1.07 -1.44 1.19 -2.25 c -2.73 0.02 -5.37 1.27 -7.38 -3.11 c -0.31 -0.67 -0.23 -0.75 -0.85 -0.92 c -2.14 6.06 -3.03 4.63 -7.37 4.75 z" stroke-linecap="round"/>
</g>
</g>
</g>
</svg>