<?xml version="1.0" encoding="UTF-8"?>
<!DOCTYPE svg PUBLIC "-//W3C//DTD SVG 1.1//EN" "http://www.w3.org/Graphics/SVG/1.1/DTD/svg11.dtd">
<!-- Creator: CorelDRAW 2021.5 -->
<svg xmlns="http://www.w3.org/2000/svg" xmlSpace="preserve" width="100px" height="100px" version="1.1" style="shape-rendering:geometricPrecision; text-rendering:geometricPrecision; image-rendering:optimizeQuality; fill-rule:evenodd; clip-rule:evenodd"
viewBox="0 0 44.47 44.81"
 xmlnsXlink="http://www.w3.org/1999/xlink"
 xmlnsxodm="http://www.corel.com/coreldraw/odm/2003">
 <defs>
  <style type="text/css">
    .fil0{fill:#996EA8 ;}
  </style>
 </defs>
 <g id="Layer_x0020_1">
  <metadata id="CorelCorpID_0Corel-Layer"/>
  <path className="fil0" d="M5.19 8.59c-5.08,5.15 -7.72,17.47 -1.81,25.57 4.72,6.39 11.63,10.51 19.68,10.65 15.88,-0.12 26.3,-18.41 19.09,-32.32 -6.85,-14.85 -26.81,-16.85 -36.95,-3.9z "/>
  <path fill="#272f36" d="M10.01 21.27c3.04,-0.96 4.19,3.37 1.51,4.3 -1.31,0.45 -2.66,-0.46 -2.93,-1.4 -0.4,-1.45 0.38,-2.58 1.42,-2.91zm-7.24 -2.1c0.03,0.59 0.74,1.34 1.32,2.05 2.96,3.58 -0.19,4.6 -1,7.14 2.93,0.15 4.97,-2 6.91,2.01 0.26,0.54 0.79,1.75 1.23,2.06 1.09,-1.31 0.53,-2.47 2.31,-4.01 1.78,-1.55 3.22,-0.35 5.26,-0.86 -0.2,-1 -3.3,-3.01 -1.62,-6.85 0.34,-0.77 1.07,-1.44 1.19,-2.25 -2.73,0.02 -5.37,1.27 -7.38,-3.11 -0.31,-0.67 -0.23,-0.75 -0.85,-0.92 -2.14,6.06 -3.03,4.63 -7.37,4.75z"/>
 </g>
</svg>
