<?xml version="1.0" encoding="UTF-8"?>
<!DOCTYPE svg PUBLIC "-//W3C//DTD SVG 1.1//EN" "http://www.w3.org/Graphics/SVG/1.1/DTD/svg11.dtd">
<!-- Creator: CorelDRAW 2021.5 -->
<svg xmlns="http://www.w3.org/2000/svg" xmlSpace="preserve" width="70px" height="80px" version="1.1" style="shape-rendering:geometricPrecision; text-rendering:geometricPrecision; image-rendering:optimizeQuality; fill-rule:evenodd; clip-rule:evenodd"
viewBox="0 0 29.44 34.86"
 xmlnsXlink="http://www.w3.org/1999/xlink"
 xmlnsxodm="http://www.corel.com/coreldraw/odm/2003">
 <defs>
  <style type="text/css">
    .fil0{fill:#996EA8 ;}
  </style>
 </defs>
 <g id="Layer_x0020_1">
  <metadata id="CorelCorpID_0Corel-Layer"/>
  <path className="fil0" d="M8.26 29.6c5.57,-1.79 6.61,-1.76 12.38,-2.27 -4.07,-0.45 -7.92,-0.02 -12.18,1.37 0.15,-0.68 0.39,-1.32 0.72,-1.93l0.09 -0.16c1.78,-3.18 5.78,-5.36 9.45,-5.45 4.35,-0.11 9.4,3.07 10.73,5.93 -0.09,0.24 -0.2,0.49 -0.33,0.74l-0.07 0.13 -0 0.01c-1.55,2.87 -5.61,6.3 -9.44,6.84 -4.13,0.58 -9.92,-3.11 -11.36,-5.17l0.02 -0.01 -0.01 -0.01zm0.76 -14.57c0.61,-1.2 1.29,-2.6 2.16,-4.35 -0.7,2.65 -1.65,5.12 -2.9,7.51l-0.01 0.02 -0.11 0.2 -0.01 0.02 -0.11 0.2 -0.01 0.02c-1.21,2.23 -2.68,4.39 -4.47,6.56l0.01 0 -0.02 0.02c5.3,0.85 11.04,-2.96 13.69,-7.81l0 -0 0.12 -0.23c0.18,-0.34 0.34,-0.68 0.48,-1.03 2.25,-5.34 0.75,-13.13 -2.15,-16.17 -4.26,-0.07 -11.52,3.53 -14.29,8.46l-0.01 0.02c-0.04,0.07 -0.08,0.14 -0.11,0.21l-0 0c-2.55,4.88 -0.81,13.63 1.03,16.37 3.09,-3.8 4.42,-5.72 5.83,-8.34l0.01 -0.02 0.1 -0.18 0.01 -0.02 0.1 -0.18 0.01 -0.02 0.1 -0.18 0.01 -0.02 0.1 -0.19 0.01 -0.02 0.1 -0.19 0.01 -0.02 0.21 -0.41 0.01 -0.02 0.1 -0.2z"/>
 </g>
</svg>
