<?xml version="1.0" encoding="UTF-8"?>
<!DOCTYPE svg PUBLIC "-//W3C//DTD SVG 1.1//EN" "http://www.w3.org/Graphics/SVG/1.1/DTD/svg11.dtd">
<!-- Creator: CorelDRAW 2021.5 -->
<svg xmlns="http://www.w3.org/2000/svg" xmlSpace="preserve" width="300px" height="85px" version="1.1" style="shape-rendering:geometricPrecision; text-rendering:geometricPrecision; image-rendering:optimizeQuality; fill-rule:evenodd; clip-rule:evenodd"
viewBox="0 0 564.9 151.08"
 xmlnsXlink="http://www.w3.org/1999/xlink"
 xmlnsxodm="http://www.corel.com/coreldraw/odm/2003">
 <defs>
  <style type="text/css">
    .fil0 {fill:#996EA8;fill-rule:nonzero ;}
  </style>
 </defs>
 <g id="Layer_x0020_1">
  <metadata id="CorelCorpID_0Corel-Layer"/>
  <path className="fil0" d="M31.97 63.63c2.67,-8.04 5.52,-16.14 8.59,-24.31l14.11 -37.85 9.02 0 -27.93 73.6 -7.81 0 -27.93 -73.6 9.02 0 14.11 37.85c3.1,8.17 5.97,16.27 8.64,24.31l0.21 0zm52.56 -62.16l0 65.48 35.94 0 0 8.12 -44.95 0 0 -73.6 9.02 0zm42.27 73.6l29.92 -73.6 7.78 0 30.04 73.6 -9.75 0 -8.64 -22.09 -31.03 0 -8.68 22.09 -9.64 0zm33.76 -62.22c-3.31,9.17 -6.46,17.51 -9.45,25l-2.84 7.01 24.63 0 -2.84 -7.02c-3.02,-7.63 -6.1,-15.95 -9.28,-24.98l-0.22 0zm52.45 8.02c0,2.16 0.43,3.95 1.31,5.36 0.88,1.43 2.05,2.59 3.53,3.51 1.48,0.9 3.19,1.67 5.15,2.25 1.95,0.58 4,1.13 6.1,1.65 2.86,0.69 5.66,1.47 8.42,2.31 2.76,0.85 5.2,2.01 7.36,3.5 2.16,1.48 3.91,3.42 5.24,5.8 1.33,2.39 1.99,5.45 1.99,9.21 0,3.81 -0.71,7.1 -2.16,9.88 -1.45,2.76 -3.46,5.04 -6.01,6.82 -2.56,1.78 -5.56,3.1 -9.06,3.96 -3.49,0.86 -7.31,1.3 -11.44,1.3 -1.92,0 -3.87,-0.11 -5.86,-0.36 -2.01,-0.24 -3.91,-0.56 -5.73,-0.96 -1.82,-0.39 -3.46,-0.86 -4.92,-1.37 -1.47,-0.51 -2.63,-1.03 -3.48,-1.54l0 -8.17c1.32,0.66 2.8,1.24 4.45,1.78 1.65,0.54 3.36,1.01 5.13,1.39 1.77,0.37 3.53,0.68 5.33,0.9 1.8,0.2 3.5,0.32 5.07,0.32 2.56,0 5.02,-0.22 7.35,-0.66 2.33,-0.45 4.38,-1.19 6.12,-2.2 1.77,-1.03 3.16,-2.44 4.19,-4.21 1.03,-1.79 1.54,-4 1.54,-6.69 0,-2.2 -0.45,-4.02 -1.35,-5.45 -0.88,-1.43 -2.09,-2.61 -3.59,-3.55 -1.5,-0.94 -3.23,-1.69 -5.18,-2.29 -1.97,-0.58 -4.02,-1.13 -6.18,-1.63 -2.87,-0.68 -5.65,-1.41 -8.38,-2.23 -2.74,-0.83 -5.17,-1.97 -7.31,-3.44 -2.14,-1.46 -3.87,-3.36 -5.17,-5.67 -1.29,-2.31 -1.95,-5.28 -1.95,-8.87 0,-3.74 0.68,-6.97 2.05,-9.65 1.37,-2.71 3.23,-4.94 5.56,-6.71 2.35,-1.75 5.03,-3.06 8.08,-3.91 3.04,-0.85 6.29,-1.26 9.75,-1.26 3.93,0 7.57,0.38 10.97,1.13 3.4,0.75 6.5,1.75 9.34,2.95l0 8.32c-3.04,-1.27 -6.2,-2.33 -9.45,-3.14 -3.25,-0.81 -6.73,-1.22 -10.43,-1.26 -2.78,0 -5.2,0.3 -7.27,0.9 -2.05,0.6 -3.76,1.47 -5.11,2.59 -1.35,1.11 -2.37,2.46 -3.02,4.06 -0.66,1.6 -1,3.36 -1,5.32zm54.98 54.2l0 -73.6 9.02 0 0 73.6 -9.02 0zm65.48 -32.57c4.51,6.5 8.96,13.17 13.38,20.03l0.32 0c-0.47,-7.14 -0.71,-14.45 -0.71,-21.88l0 -39.17 9.07 0 0 73.6 -9.02 0 -28.85 -41.03c-4.98,-7.16 -9.43,-13.83 -13.34,-20.03l-0.34 0c0.47,6.71 0.71,14.54 0.71,23.48l0 37.57 -9.02 0 0 -73.6 8.9 0 28.89 41.03zm47.9 -21.62c0,2.16 0.43,3.95 1.31,5.36 0.88,1.43 2.05,2.59 3.53,3.51 1.48,0.9 3.19,1.67 5.15,2.25 1.95,0.58 4,1.13 6.1,1.65 2.86,0.69 5.66,1.47 8.42,2.31 2.76,0.85 5.2,2.01 7.36,3.5 2.16,1.48 3.91,3.42 5.24,5.8 1.33,2.39 1.99,5.45 1.99,9.21 0,3.81 -0.71,7.1 -2.16,9.88 -1.45,2.76 -3.46,5.04 -6.01,6.82 -2.56,1.78 -5.56,3.1 -9.06,3.96 -3.49,0.86 -7.31,1.3 -11.44,1.3 -1.92,0 -3.87,-0.11 -5.86,-0.36 -2.01,-0.24 -3.91,-0.56 -5.73,-0.96 -1.82,-0.39 -3.46,-0.86 -4.92,-1.37 -1.47,-0.51 -2.63,-1.03 -3.48,-1.54l0 -8.17c1.32,0.66 2.8,1.24 4.45,1.78 1.65,0.54 3.36,1.01 5.13,1.39 1.77,0.37 3.53,0.68 5.33,0.9 1.8,0.2 3.5,0.32 5.07,0.32 2.56,0 5.02,-0.22 7.35,-0.66 2.33,-0.45 4.38,-1.19 6.12,-2.2 1.77,-1.03 3.16,-2.44 4.19,-4.21 1.03,-1.79 1.54,-4 1.54,-6.69 0,-2.2 -0.45,-4.02 -1.35,-5.45 -0.88,-1.43 -2.09,-2.61 -3.59,-3.55 -1.5,-0.94 -3.23,-1.69 -5.18,-2.29 -1.97,-0.58 -4.02,-1.13 -6.18,-1.63 -2.87,-0.68 -5.65,-1.41 -8.38,-2.23 -2.74,-0.83 -5.17,-1.97 -7.31,-3.44 -2.14,-1.46 -3.87,-3.36 -5.17,-5.67 -1.29,-2.31 -1.95,-5.28 -1.95,-8.87 0,-3.74 0.68,-6.97 2.05,-9.65 1.37,-2.71 3.23,-4.94 5.56,-6.71 2.35,-1.75 5.03,-3.06 8.08,-3.91 3.04,-0.85 6.29,-1.26 9.75,-1.26 3.93,0 7.57,0.38 10.97,1.13 3.4,0.75 6.5,1.75 9.34,2.95l0 8.32c-3.04,-1.27 -6.2,-2.33 -9.45,-3.14 -3.25,-0.81 -6.73,-1.22 -10.43,-1.26 -2.78,0 -5.2,0.3 -7.27,0.9 -2.05,0.6 -3.76,1.47 -5.11,2.59 -1.35,1.11 -2.37,2.46 -3.02,4.06 -0.66,1.6 -1,3.36 -1,5.32zm54.98 54.2l0 -73.6 9.02 0 0 36.37 0.11 0 33.81 -36.37 9.02 0 -34.34 36.63 36.37 36.97 -9.02 0 -35.84 -36.03 -0.11 0 0 36.03 -9.02 0zm60.81 0l29.92 -73.6 7.78 0 30.04 73.6 -9.75 0 -8.64 -22.09 -31.03 0 -8.68 22.09 -9.64 0zm33.76 -62.22c-3.31,9.17 -6.46,17.51 -9.45,25l-2.84 7.01 24.63 0 -2.84 -7.02c-3.02,-7.63 -6.1,-15.95 -9.28,-24.98l-0.22 0z"/>
  <path className="fil0" d="M29.37 124.59c1.53,0.22 2.91,0.63 4.13,1.21 1.21,0.59 2.26,1.35 3.15,2.28 0.87,0.92 1.56,2.02 2.02,3.29 0.47,1.28 0.71,2.72 0.71,4.35 0,1.15 -0.18,2.37 -0.52,3.64 -0.34,1.26 -0.9,2.5 -1.69,3.69 -0.8,1.2 -1.83,2.3 -3.11,3.31 -1.29,1.01 -2.88,1.83 -4.78,2.48 -1.47,0.49 -3.1,0.83 -4.88,1.04 -1.78,0.19 -3.92,0.29 -6.41,0.29l-12.67 0 0 -49.54 12.22 0c1.12,0 2.15,0.01 3.06,0.05 0.91,0.04 1.76,0.1 2.53,0.18 0.76,0.06 1.48,0.17 2.14,0.28 0.66,0.1 1.28,0.24 1.87,0.38 1.53,0.43 2.92,1 4.19,1.73 1.25,0.72 2.33,1.59 3.2,2.62 0.87,1.01 1.56,2.16 2.04,3.44 0.47,1.29 0.71,2.69 0.71,4.2 0,1.21 -0.14,2.38 -0.43,3.49 -0.28,1.11 -0.73,2.14 -1.37,3.07 -0.63,0.94 -1.44,1.78 -2.44,2.52 -1.01,0.75 -2.23,1.37 -3.65,1.86l0 0.15zm-8.81 -2.49c1.18,0 2.2,-0.05 3.06,-0.16 0.86,-0.11 1.64,-0.28 2.33,-0.51 1.85,-0.62 3.2,-1.58 4.05,-2.88 0.85,-1.32 1.28,-2.86 1.28,-4.64 0,-1.82 -0.44,-3.31 -1.33,-4.47 -0.89,-1.16 -2.28,-2.02 -4.17,-2.59 -0.94,-0.28 -2.02,-0.47 -3.25,-0.58 -1.24,-0.11 -2.69,-0.16 -4.36,-0.16l-6.77 0 0 16.01 9.17 0zm-9.17 5.46l0 17.14 7.28 0c1.73,0 3.33,-0.07 4.8,-0.24 1.48,-0.17 2.74,-0.42 3.78,-0.76 1.13,-0.37 2.09,-0.83 2.88,-1.42 0.78,-0.58 1.42,-1.21 1.9,-1.92 0.48,-0.7 0.83,-1.44 1.04,-2.23 0.22,-0.78 0.32,-1.58 0.32,-2.4 0,-0.93 -0.11,-1.81 -0.33,-2.63 -0.23,-0.82 -0.59,-1.57 -1.1,-2.21 -0.51,-0.66 -1.16,-1.23 -1.98,-1.72 -0.83,-0.49 -1.86,-0.87 -3.1,-1.14 -0.73,-0.18 -1.58,-0.29 -2.53,-0.37 -0.95,-0.08 -2.12,-0.11 -3.53,-0.11l-9.43 0zm96.84 -2.16c0,-3.34 -0.44,-6.27 -1.31,-8.81 -0.87,-2.54 -2.07,-4.67 -3.6,-6.37 -1.54,-1.71 -3.35,-3 -5.44,-3.87 -2.07,-0.87 -4.31,-1.31 -6.71,-1.31 -2.39,0 -4.64,0.44 -6.71,1.31 -2.09,0.87 -3.89,2.16 -5.44,3.87 -1.53,1.71 -2.73,3.83 -3.6,6.37 -0.87,2.54 -1.31,5.47 -1.31,8.81 0,3.34 0.44,6.26 1.33,8.8 0.89,2.53 2.1,4.64 3.63,6.35 1.54,1.71 3.35,2.98 5.44,3.84 2.07,0.87 4.32,1.3 6.75,1.3 2.39,0 4.63,-0.43 6.68,-1.3 2.06,-0.86 3.86,-2.14 5.4,-3.84 1.53,-1.71 2.73,-3.82 3.6,-6.35 0.87,-2.54 1.31,-5.46 1.31,-8.8zm5.99 0c0,3.76 -0.54,7.2 -1.62,10.34 -1.07,3.14 -2.62,5.84 -4.63,8.11 -2.01,2.28 -4.42,4.05 -7.24,5.32 -2.83,1.27 -5.99,1.91 -9.5,1.91 -3.63,0 -6.87,-0.63 -9.74,-1.91 -2.86,-1.28 -5.28,-3.05 -7.27,-5.32 -1.98,-2.26 -3.5,-4.97 -4.55,-8.11 -1.05,-3.15 -1.58,-6.59 -1.58,-10.34 0,-3.78 0.54,-7.24 1.63,-10.39 1.09,-3.15 2.63,-5.87 4.63,-8.14 2,-2.26 4.41,-4.03 7.26,-5.31 2.83,-1.28 6.02,-1.91 9.55,-1.91 3.6,0 6.83,0.63 9.67,1.91 2.86,1.28 5.27,3.05 7.26,5.31 1.98,2.28 3.5,4.99 4.55,8.14 1.05,3.15 1.58,6.61 1.58,10.39zm36.76 4.29l0 20.48 -6.07 0 0 -49.54 12.86 0c2.17,0 4.02,0.08 5.54,0.24 1.52,0.17 2.91,0.42 4.16,0.76 3.46,0.93 6.11,2.54 7.93,4.8 1.83,2.25 2.74,5.08 2.74,8.46 0,2.01 -0.32,3.79 -0.96,5.37 -0.65,1.58 -1.54,2.96 -2.71,4.12 -1.16,1.16 -2.55,2.11 -4.17,2.85 -1.62,0.75 -3.41,1.29 -5.39,1.63l0 0.15 14.67 21.15 -6.07 0 -15.25 -20.48 -7.28 0zm0 -23.59l0 18.13 5.97 0c1.85,0 3.43,-0.06 4.74,-0.19 1.3,-0.11 2.48,-0.34 3.52,-0.66 2.1,-0.64 3.72,-1.67 4.86,-3.07 1.14,-1.4 1.71,-3.25 1.71,-5.51 -0.03,-2.13 -0.57,-3.83 -1.63,-5.13 -1.06,-1.29 -2.53,-2.23 -4.41,-2.79 -0.89,-0.27 -1.95,-0.47 -3.19,-0.58 -1.23,-0.13 -2.79,-0.19 -4.7,-0.19l-6.85 0zm96.72 19.31c0,-3.34 -0.44,-6.27 -1.31,-8.81 -0.87,-2.54 -2.07,-4.67 -3.6,-6.37 -1.54,-1.71 -3.35,-3 -5.44,-3.87 -2.07,-0.87 -4.31,-1.31 -6.71,-1.31 -2.39,0 -4.64,0.44 -6.71,1.31 -2.09,0.87 -3.89,2.16 -5.44,3.87 -1.53,1.71 -2.73,3.83 -3.6,6.37 -0.87,2.54 -1.31,5.47 -1.31,8.81 0,3.34 0.44,6.26 1.33,8.8 0.89,2.53 2.1,4.64 3.63,6.35 1.54,1.71 3.35,2.98 5.44,3.84 2.07,0.87 4.32,1.3 6.75,1.3 2.39,0 4.63,-0.43 6.68,-1.3 2.06,-0.86 3.86,-2.14 5.4,-3.84 1.53,-1.71 2.73,-3.82 3.6,-6.35 0.87,-2.54 1.31,-5.46 1.31,-8.8zm5.99 0c0,3.76 -0.54,7.2 -1.62,10.34 -1.07,3.14 -2.62,5.84 -4.63,8.11 -2.01,2.28 -4.42,4.05 -7.24,5.32 -2.83,1.27 -5.99,1.91 -9.5,1.91 -3.63,0 -6.87,-0.63 -9.74,-1.91 -2.86,-1.28 -5.28,-3.05 -7.27,-5.32 -1.98,-2.26 -3.5,-4.97 -4.55,-8.11 -1.05,-3.15 -1.58,-6.59 -1.58,-10.34 0,-3.78 0.54,-7.24 1.63,-10.39 1.09,-3.15 2.63,-5.87 4.63,-8.14 2,-2.26 4.41,-4.03 7.26,-5.31 2.83,-1.28 6.02,-1.91 9.55,-1.91 3.6,0 6.83,0.63 9.67,1.91 2.86,1.28 5.27,3.05 7.26,5.31 1.98,2.28 3.5,4.99 4.55,8.14 1.05,3.15 1.58,6.61 1.58,10.39zm46.69 17.07c1.8,-5.41 3.72,-10.86 5.78,-16.36l9.5 -25.48 6.07 0 -18.8 49.54 -5.26 0 -18.8 -49.54 6.07 0 9.5 25.48c2.09,5.5 4.02,10.95 5.82,16.36l0.14 0zm74.33 -14.22c3.03,4.37 6.03,8.86 9,13.48l0.22 0c-0.32,-4.8 -0.48,-9.72 -0.48,-14.73l0 -26.36 6.11 0 0 49.54 -6.07 0 -19.42 -27.62c-3.35,-4.82 -6.35,-9.31 -8.98,-13.48l-0.23 0c0.32,4.51 0.48,9.79 0.48,15.81l0 25.29 -6.07 0 0 -49.54 5.99 0 19.45 27.62zm46.97 21.92l0 -49.54 6.07 0 0 49.54 -6.07 0zm62.22 -45.14c-2.78,0 -5.37,0.44 -7.79,1.31 -2.42,0.87 -4.51,2.19 -6.3,3.92 -1.77,1.75 -3.17,3.91 -4.2,6.49 -1.02,2.58 -1.54,5.59 -1.54,9.02 0,3.41 0.48,6.36 1.43,8.88 0.95,2.5 2.3,4.58 4.05,6.22 1.76,1.65 3.86,2.86 6.32,3.64 2.47,0.8 5.21,1.19 8.23,1.19 0.83,0 1.71,-0.04 2.63,-0.13 0.92,-0.07 1.86,-0.2 2.79,-0.35 0.94,-0.15 1.85,-0.33 2.74,-0.53 0.88,-0.2 1.68,-0.42 2.38,-0.66l0 5.29c-1.45,0.57 -3.15,1 -5.07,1.31 -1.93,0.3 -3.91,0.46 -5.93,0.46 -4.12,0 -7.79,-0.57 -10.97,-1.72 -3.19,-1.15 -5.85,-2.81 -8.02,-4.95 -2.16,-2.15 -3.79,-4.77 -4.91,-7.86 -1.11,-3.11 -1.67,-6.63 -1.67,-10.55 0,-3.86 0.58,-7.4 1.76,-10.64 1.18,-3.24 2.87,-6.02 5.08,-8.35 2.21,-2.31 4.89,-4.13 8.04,-5.42 3.16,-1.3 6.7,-1.95 10.62,-1.95 1.04,0 2.07,0.04 3.08,0.13 1.01,0.09 1.99,0.22 2.91,0.37 0.92,0.16 1.78,0.35 2.58,0.57 0.78,0.23 1.47,0.45 2.04,0.69l0 5.3c-1.5,-0.47 -3.15,-0.87 -4.92,-1.19 -1.78,-0.31 -3.57,-0.48 -5.37,-0.48zm35.32 45.14l20.14 -49.54 5.24 0 20.22 49.54 -6.56 0 -5.82 -14.87 -20.89 0 -5.84 14.87 -6.49 0zm22.72 -41.88c-2.23,6.17 -4.35,11.79 -6.36,16.83l-1.91 4.72 16.58 0 -1.91 -4.73c-2.04,-5.13 -4.11,-10.74 -6.25,-16.82l-0.15 0z"/>
 </g>
</svg>
